<svg aria-hidden="true" style="position: absolute; width: 0; height: 0; overflow: hidden;" version="1.1" xmlns="http://www.w3.org/2000/svg" xmlns:xlink="http://www.w3.org/1999/xlink">
<defs>
<symbol id="icon-clock" viewBox="0 0 31 32">
<path d="M30.84 15.301c-0.002-8.452-6.855-15.303-15.308-15.301s-15.303 6.855-15.301 15.308c0.001 6.658 4.307 12.551 10.649 14.576 0.061 0.019 0.124 0.029 0.187 0.029 0.121-0 0.239-0.032 0.342-0.094 0.135-0.080 0.236-0.207 0.283-0.356l3.865-12.25c1.057-0.005 1.909-0.866 1.903-1.923s-0.866-1.909-1.923-1.903c-0.284 0.001-0.565 0.067-0.82 0.191l-5.106-5.107c-0.253-0.245-0.657-0.238-0.902 0.016-0.239 0.247-0.239 0.639 0 0.886l5.103 5.109c-0.392 0.799-0.168 1.764 0.536 2.309l-3.683 11.673c-7.278-2.681-11.004-10.754-8.323-18.032s10.754-11.004 18.032-8.323 11.004 10.754 8.323 18.032c-1.31 3.556-4.001 6.431-7.462 7.973l-0.398-1.874c-0.073-0.344-0.411-0.565-0.756-0.492-0.109 0.023-0.209 0.074-0.292 0.148l-3.837 3.426c-0.263 0.234-0.287 0.637-0.052 0.9 0.076 0.085 0.174 0.149 0.283 0.184l4.899 1.563c0.335 0.108 0.694-0.077 0.802-0.412 0.034-0.106 0.040-0.219 0.017-0.328l-0.391-1.839c5.664-2.388 9.342-7.942 9.329-14.089zM15.535 14.664c0.352 0 0.638 0.286 0.638 0.638s-0.286 0.638-0.638 0.638c-0.352 0-0.638-0.285-0.638-0.638s0.285-0.638 0.638-0.638zM17.635 29.528l2.184-1.948 0.603 2.84-2.787-0.892z"></path>
</symbol>
<symbol id="icon-mailto" viewBox="0 0 47 32">
<path fill="#afb1b8" style="fill: var(--color1, #afb1b8)" d="M42.182 0h-37.818c-2.406 0-4.364 1.77-4.364 3.947v23.679c0 2.176 1.957 3.947 4.364 3.947h37.818c2.406 0 4.364-1.77 4.364-3.947v-23.679c0-2.176-1.958-3.947-4.364-3.947zM42.182 2.631c0.198 0 0.385 0.037 0.557 0.102l-19.466 15.259-19.467-15.259c0.172-0.065 0.36-0.102 0.558-0.102h37.818zM42.182 28.941h-37.818c-0.803 0-1.455-0.59-1.455-1.316v-22.113l19.41 15.215c0.274 0.215 0.614 0.321 0.953 0.321s0.679-0.107 0.953-0.321l19.41-15.215v22.113c0 0.726-0.652 1.315-1.455 1.315z"></path>
</symbol>
<symbol id="icon-telephone" viewBox="0 0 21 32">
<path fill="#757575" style="fill: var(--color2, #757575)" d="M18.133 0h-14.933c-1.765 0-3.2 1.298-3.2 2.894v25.083c0 1.596 1.435 2.894 3.2 2.894h14.933c1.765 0 3.2-1.298 3.2-2.894v-25.083c0-1.596-1.435-2.894-3.2-2.894zM3.2 1.929h14.933c0.589 0 1.067 0.432 1.067 0.965v20.259h-17.067v-20.259c0-0.532 0.478-0.965 1.067-0.965zM18.133 28.941h-14.933c-0.589 0-1.067-0.432-1.067-0.965v-2.894h17.067v2.894c0 0.532-0.478 0.965-1.067 0.965z"></path>
</symbol>
</defs>
</svg>
